<svg width="21" height="21" viewBox="0 0 21 21" fill="none" xmlns="http://www.w3.org/2000/svg">
<path fill-rule="evenodd" clip-rule="evenodd" d="M10.6931 0.615479C8.01907 0.615479 7.68347 0.627171 6.63321 0.674966C5.58499 0.722967 4.8695 0.888917 4.24344 1.13241C3.59584 1.3839 3.0465 1.72031 2.49921 2.2678C1.95152 2.81509 1.6151 3.36443 1.36279 4.01182C1.11869 4.63808 0.952532 5.35378 0.905352 6.40159C0.858377 7.45186 0.846069 7.78766 0.846069 10.4617C0.846069 13.1358 0.857967 13.4704 0.905557 14.5206C0.953763 15.5689 1.11971 16.2844 1.363 16.9104C1.61469 17.558 1.95111 18.1074 2.4986 18.6546C3.04568 19.2023 3.59502 19.5396 4.24221 19.7911C4.86868 20.0346 5.58437 20.2005 6.63239 20.2485C7.68265 20.2963 8.01804 20.308 10.6919 20.308C13.3662 20.308 13.7008 20.2963 14.751 20.2485C15.7993 20.2005 16.5156 20.0346 17.142 19.7911C17.7894 19.5396 18.3379 19.2023 18.885 18.6546C19.4327 18.1074 19.7691 17.558 20.0214 16.9106C20.2635 16.2844 20.4297 15.5687 20.4789 14.5209C20.5261 13.4706 20.5384 13.1358 20.5384 10.4617C20.5384 7.78766 20.5261 7.45206 20.4789 6.40179C20.4297 5.35358 20.2635 4.63808 20.0214 4.01203C19.7691 3.36443 19.4327 2.81509 18.885 2.2678C18.3373 1.72011 17.7896 1.38369 17.1414 1.13241C16.5137 0.888917 15.7978 0.722967 14.7496 0.674966C13.6993 0.627171 13.365 0.615479 10.6901 0.615479H10.6931ZM9.80981 2.38983C10.072 2.38942 10.3645 2.38983 10.6931 2.38983C13.3221 2.38983 13.6336 2.39926 14.6718 2.44644C15.6318 2.49034 16.1529 2.65075 16.4999 2.78552C16.9594 2.96399 17.287 3.17732 17.6314 3.52194C17.9761 3.86656 18.1894 4.19477 18.3683 4.65426C18.503 5.00093 18.6636 5.52196 18.7073 6.48197C18.7545 7.51993 18.7648 7.83173 18.7648 10.4595C18.7648 13.0872 18.7545 13.399 18.7073 14.4369C18.6634 15.3969 18.503 15.918 18.3683 16.2646C18.1898 16.7241 17.9761 17.0513 17.6314 17.3957C17.2868 17.7403 16.9596 17.9537 16.4999 18.1321C16.1533 18.2675 15.6318 18.4275 14.6718 18.4714C13.6339 18.5186 13.3221 18.5289 10.6931 18.5289C8.06395 18.5289 7.75236 18.5186 6.7144 18.4714C5.75439 18.4271 5.23336 18.2667 4.88607 18.1319C4.42658 17.9535 4.09837 17.7401 3.75375 17.3955C3.40913 17.0509 3.1958 16.7235 3.01692 16.2638C2.88215 15.9172 2.72153 15.3961 2.67784 14.4361C2.63066 13.3982 2.62123 13.0864 2.62123 10.457C2.62123 7.82763 2.63066 7.51747 2.67784 6.47951C2.72174 5.5195 2.88215 4.99847 3.01692 4.65139C3.19538 4.1919 3.40913 3.86369 3.75375 3.51907C4.09837 3.17445 4.42658 2.96112 4.88607 2.78224C5.23315 2.64686 5.75439 2.48686 6.7144 2.44275C7.62271 2.40173 7.97472 2.38942 9.80981 2.38737V2.38983ZM15.949 4.02472C15.2966 4.02472 14.7674 4.55334 14.7674 5.20586C14.7674 5.85818 15.2966 6.38741 15.949 6.38741C16.6013 6.38741 17.1305 5.85818 17.1305 5.20586C17.1305 4.55355 16.6013 4.02472 15.949 4.02472ZM10.6932 5.40525C7.90072 5.40525 5.6367 7.66927 5.6367 10.4617C5.6367 13.2541 7.90072 15.5171 10.6932 15.5171C13.4856 15.5171 15.7488 13.2541 15.7488 10.4617C15.7488 7.66927 13.4856 5.40525 10.6932 5.40525ZM10.6931 7.17962C12.5057 7.17962 13.9752 8.64897 13.9752 10.4617C13.9752 12.2742 12.5057 13.7438 10.6931 13.7438C8.88039 13.7438 7.41104 12.2742 7.41104 10.4617C7.41104 8.64897 8.88039 7.17962 10.6931 7.17962Z" fill="white"/>
</svg>
