<svg width="19" height="15" viewBox="0 0 19 15" fill="none" xmlns="http://www.w3.org/2000/svg">
<path fill-rule="evenodd" clip-rule="evenodd" d="M9.06249 4.006L9.10123 4.64481L8.45556 4.56658C6.10531 4.26673 4.05207 3.24985 2.30875 1.54201L1.45646 0.694608L1.23693 1.32038C0.772048 2.71534 1.06906 4.18851 2.03757 5.17932C2.55411 5.72687 2.43788 5.8051 1.54686 5.47917C1.23693 5.37488 0.965749 5.29665 0.939923 5.33576C0.849528 5.42702 1.15945 6.61339 1.40481 7.08272C1.74056 7.73456 2.42497 8.37338 3.17395 8.75145L3.80671 9.0513L3.05773 9.06433C2.33458 9.06433 2.30875 9.07737 2.38623 9.35115C2.6445 10.1986 3.66466 11.0981 4.80105 11.4892L5.60168 11.763L4.90436 12.1802C3.87128 12.7799 2.65741 13.1188 1.44355 13.1449C0.862442 13.1579 0.384644 13.2101 0.384644 13.2492C0.384644 13.3796 1.96009 14.1096 2.87694 14.3965C5.62751 15.2439 8.89462 14.8788 11.3482 13.4317C13.0915 12.4018 14.8348 10.355 15.6484 8.37338C16.0874 7.31738 16.5265 5.38791 16.5265 4.46229C16.5265 3.86259 16.5652 3.78437 17.2884 3.06733C17.7145 2.65015 18.1148 2.19386 18.1923 2.06349C18.3214 1.81579 18.3085 1.81579 17.6499 2.03741C16.5523 2.42852 16.3973 2.37638 16.9397 1.78971C17.34 1.37253 17.8178 0.616386 17.8178 0.394758C17.8178 0.355647 17.6241 0.420832 17.4046 0.538165C17.1721 0.668534 16.6556 0.864089 16.2682 0.981421L15.5709 1.20305L14.9381 0.77283C14.5895 0.538165 14.0987 0.277425 13.8405 0.199204C13.1819 0.0166863 12.1746 0.0427602 11.5806 0.251352C9.96643 0.838015 8.94627 2.3503 9.06249 4.006Z" fill="white"/>
</svg>
