<svg width="21" height="15" viewBox="0 0 21 15" fill="none" xmlns="http://www.w3.org/2000/svg">
<path fill-rule="evenodd" clip-rule="evenodd" d="M18.2319 1.11494C19.0792 1.34745 19.7465 2.03255 19.973 2.90255C20.3845 4.47934 20.3845 7.76931 20.3845 7.76931C20.3845 7.76931 20.3845 11.0592 19.973 12.6361C19.7465 13.5061 19.0792 14.1912 18.2319 14.4238C16.6963 14.8462 10.5383 14.8462 10.5383 14.8462C10.5383 14.8462 4.38034 14.8462 2.84467 14.4238C1.99734 14.1912 1.33004 13.5061 1.10358 12.6361C0.692169 11.0592 0.692169 7.76931 0.692169 7.76931C0.692169 7.76931 0.692169 4.47934 1.10358 2.90255C1.33004 2.03255 1.99734 1.34745 2.84467 1.11494C4.38034 0.692383 10.5383 0.692383 10.5383 0.692383C10.5383 0.692383 16.6963 0.692383 18.2319 1.11494ZM8.69219 5.00001V11.1539L13.6153 8.07705L8.69219 5.00001Z" fill="white"/>
</svg>
