<svg width="91" height="28" viewBox="0 0 91 28" fill="none" xmlns="http://www.w3.org/2000/svg">
<g clip-path="url(#clip0_1_154)">
<path d="M26.2996 19.8443C26.1584 19.5031 26.0261 19.1443 25.8849 18.8381L25.232 17.3768L25.2055 17.3506C23.2643 13.1506 21.1908 8.88059 18.9937 4.68059L18.9055 4.50559C18.6849 4.09434 18.4643 3.63934 18.2349 3.21934C17.9525 2.72059 17.679 2.18684 17.229 1.67934C16.7904 1.14833 16.2383 0.720506 15.6127 0.426739C14.9871 0.132972 14.3036 -0.0194092 13.6114 -0.0194092C12.9192 -0.0194092 12.2356 0.132972 11.61 0.426739C10.9844 0.720506 10.4324 1.14833 9.99372 1.67934C9.57901 2.18684 9.27019 2.72059 8.98783 3.21934C8.76724 3.67434 8.54666 4.12059 8.31724 4.53184L8.22901 4.70684C6.06724 8.90684 3.95842 13.1768 2.01724 17.3768L1.9643 17.4293C1.77019 17.8843 1.54077 18.3568 1.32019 18.8643C1.17901 19.1706 1.03783 19.5031 0.896656 19.8706C0.515509 20.8329 0.393796 21.8771 0.543514 22.9003C0.693232 23.9234 1.10921 24.8903 1.75046 25.7054C2.39171 26.5206 3.23609 27.1561 4.20038 27.5491C5.16468 27.9421 6.21561 28.0792 7.2496 27.9468C8.24089 27.8174 9.19543 27.49 10.0555 26.9843C11.2025 26.3456 12.3055 25.4181 13.5408 24.0793C14.7761 25.4181 15.9055 26.3456 17.0261 26.9931C18.1037 27.6203 19.324 27.9665 20.5731 27.9993C22.0196 28.0053 23.4194 27.4921 24.5141 26.5545C25.6088 25.6168 26.3245 24.3181 26.529 22.8981C26.7653 21.8776 26.6854 20.8102 26.2996 19.8356V19.8443ZM13.629 21.2968C12.1114 19.3718 11.1231 17.6043 10.7878 16.0906C10.6489 15.5297 10.619 14.9476 10.6996 14.3756C10.7614 13.9293 10.929 13.5356 11.1584 13.2031C11.6878 12.4418 12.6143 11.9693 13.629 11.9693C14.1109 11.9547 14.5889 12.059 15.0201 12.2728C15.4513 12.4866 15.8222 12.8033 16.0996 13.1943C16.329 13.5443 16.4967 13.9293 16.5496 14.3756C16.6378 14.8831 16.6025 15.4693 16.4614 16.0906C16.1261 17.5781 15.1378 19.3631 13.629 21.2968ZM24.8702 22.5918C24.7699 23.3128 24.4809 23.9951 24.032 24.5708C23.583 25.1465 22.9898 25.5955 22.3114 25.8731C21.6408 26.1531 20.8996 26.2318 20.1761 26.1531C19.4702 26.0656 18.7643 25.8381 18.0408 25.4181C16.8395 24.6818 15.7592 23.767 14.8378 22.7056C16.6908 20.4306 17.8114 18.3568 18.2349 16.5106C18.4378 15.6356 18.4643 14.8481 18.3761 14.1218C18.2659 13.4335 18.007 12.7768 17.6172 12.1968C17.1722 11.5679 16.5781 11.0571 15.8873 10.7092C15.1965 10.3614 14.4301 10.1871 13.6555 10.2018C12.0231 10.2018 10.5672 10.9543 9.68489 12.1881C9.28769 12.7666 9.03099 13.4285 8.93489 14.1218C8.82019 14.8568 8.84666 15.6706 9.07607 16.5106C9.4996 18.3568 10.6467 20.4568 12.4731 22.7231C11.5674 23.8047 10.4846 24.7276 9.27018 25.4531C8.53783 25.8731 7.84077 26.0918 7.13489 26.1793C6.03714 26.3188 4.92826 26.0229 4.04927 25.3561C3.17028 24.6892 2.59223 23.7053 2.44077 22.6181C2.35254 21.9181 2.4143 21.2181 2.69666 20.4306C2.78489 20.1506 2.91724 19.8706 3.05842 19.5381C3.25254 19.0831 3.48195 18.6106 3.70254 18.1381L3.73783 18.0768C5.64371 13.9031 7.72607 9.64184 9.88783 5.46809L9.97607 5.29309C10.1967 4.87309 10.4172 4.42684 10.6467 4.00684C10.8761 3.56059 11.1231 3.13184 11.4408 2.78184C11.7157 2.45636 12.0593 2.1946 12.4473 2.01501C12.8352 1.83541 13.2582 1.74233 13.6864 1.74233C14.1145 1.74233 14.5375 1.83541 14.9255 2.01501C15.3134 2.1946 15.657 2.45636 15.932 2.78184C16.2408 3.13184 16.4967 3.56059 16.7261 4.00684C16.9467 4.42684 17.1672 4.88184 17.3967 5.29309L17.4849 5.46809C19.6378 9.64184 21.7202 13.9031 23.6614 18.0768L23.6878 18.1031C23.9172 18.5581 24.1114 19.0656 24.3319 19.5031C24.4731 19.8443 24.6143 20.1156 24.7025 20.4043C24.8702 21.1918 24.9584 21.8918 24.8702 22.5918ZM37.1525 21.1043C36.4876 21.114 35.8291 20.9751 35.2258 20.6979C34.6224 20.4207 34.0897 20.0123 33.6672 19.5031C32.7179 18.4181 32.214 17.019 32.2555 15.5831C32.241 14.1159 32.7611 12.6928 33.7202 11.5756C34.1638 11.0599 34.7161 10.6469 35.3381 10.3657C35.9601 10.0845 36.6366 9.94197 37.3202 9.94809C37.9634 9.93063 38.6004 10.0757 39.1715 10.3696C39.7426 10.6634 40.229 11.0965 40.5849 11.6281L40.6731 10.2543H43.2496V20.8243H40.6643L40.5761 19.2843C40.2092 19.8519 39.702 20.3171 39.1028 20.6356C38.5037 20.9541 37.8323 21.1155 37.1525 21.1043ZM37.8231 18.5843C38.3349 18.5843 38.7849 18.4443 39.2084 18.1906C39.5967 17.9106 39.9143 17.5431 40.1614 17.0968C40.3819 16.6506 40.4967 16.1168 40.4967 15.5218C40.5311 15.0051 40.4296 14.4883 40.2023 14.022C39.9749 13.5558 39.6294 13.156 39.1996 12.8618C38.7866 12.6067 38.3097 12.4714 37.8231 12.4714C37.3365 12.4714 36.8597 12.6067 36.4467 12.8618C36.0584 13.1418 35.7408 13.5093 35.4937 13.9556C35.2604 14.4477 35.1456 14.9869 35.1584 15.5306C35.124 16.0474 35.2255 16.5642 35.4528 17.0304C35.6802 17.4967 36.0256 17.8964 36.4555 18.1906C36.8702 18.4443 37.3202 18.5843 37.8231 18.5843ZM47.6614 7.40184C47.6614 7.70809 47.6084 7.98809 47.4672 8.21559C47.3261 8.43434 47.1319 8.63559 46.8761 8.77559C46.6202 8.91559 46.3467 8.96809 46.0643 8.96809C45.7819 8.96809 45.4996 8.91559 45.2437 8.77559C45.0017 8.64199 44.7982 8.44921 44.6525 8.21559C44.5159 7.96633 44.4489 7.6854 44.4584 7.40184C44.4584 7.08684 44.5202 6.80684 44.6525 6.58809C44.7937 6.32559 44.9967 6.16809 45.2437 6.02809C45.4996 5.88809 45.7731 5.82684 46.0643 5.82684C46.3452 5.82042 46.6229 5.88639 46.8703 6.01829C47.1178 6.15019 47.3265 6.3435 47.4761 6.57934C47.6045 6.83445 47.6681 7.1168 47.6614 7.40184ZM44.6614 20.7893V10.2368H47.4672V20.8068H44.6525L44.6614 20.7893ZM54.9672 13.0018V13.0368C54.8349 12.9756 54.6584 12.9493 54.5261 12.9231C54.3496 12.8881 54.2084 12.8881 54.0408 12.8881C53.2555 12.8881 52.6643 13.1156 52.2761 13.5881C51.8525 14.0693 51.6584 14.7431 51.6584 15.6093V20.7981H48.8437V10.2281H51.429L51.5172 11.8293C51.7996 11.2693 52.1349 10.8493 52.6114 10.5343C53.0853 10.2283 53.6433 10.0754 54.2084 10.0968C54.4114 10.0968 54.6055 10.1143 54.7731 10.1493C54.8614 10.1756 54.9143 10.1756 54.9672 10.2018V13.0018ZM56.0966 20.7893V5.89684H58.9025V11.5843C59.2996 11.0768 59.7496 10.6831 60.3143 10.3768C61.2083 9.94217 62.2239 9.81887 63.1972 10.0268C64.1706 10.2348 65.0448 10.7619 65.679 11.5231C66.6305 12.6104 67.1344 14.0129 67.0908 15.4518C67.1053 16.919 66.5852 18.3421 65.6261 19.4593C65.1824 19.975 64.6302 20.388 64.0082 20.6692C63.3862 20.9504 62.7096 21.093 62.0261 21.0868C61.3829 21.1043 60.7458 20.9593 60.1747 20.6654C59.6036 20.3715 59.1172 19.9384 58.7614 19.4068L58.6731 20.7806L56.0966 20.8068V20.7893ZM61.5231 18.5843C62.0261 18.5843 62.4761 18.4443 62.8996 18.1906C63.2878 17.9106 63.6055 17.5431 63.8525 17.0968C64.082 16.6506 64.1878 16.1168 64.1878 15.5218C64.1878 14.9356 64.082 14.4018 63.8525 13.9556C63.6208 13.5253 63.2953 13.1516 62.8996 12.8618C62.4866 12.6067 62.0097 12.4714 61.5231 12.4714C61.0365 12.4714 60.5597 12.6067 60.1467 12.8618C59.7496 13.1418 59.4408 13.5093 59.1849 13.9556C58.9516 14.4477 58.8368 14.9869 58.8496 15.5306C58.8152 16.0474 58.9166 16.5642 59.144 17.0304C59.3713 17.4967 59.7168 17.8964 60.1467 18.1906C60.5614 18.4443 61.0114 18.5843 61.5231 18.5843ZM68.1496 20.7981V10.2281H70.7349L70.8231 11.6018C71.148 11.0753 71.6089 10.6443 72.158 10.3536C72.7072 10.0628 73.3247 9.92283 73.9467 9.94809C74.6579 9.93591 75.357 10.1319 75.9565 10.5117C76.556 10.8914 77.0293 11.438 77.3172 12.0831C77.6261 12.7481 77.7937 13.5706 77.7937 14.4893V20.8243H74.979V14.8568C74.979 14.1218 74.8114 13.5443 74.4761 13.1156C74.1408 12.6956 73.6819 12.4681 73.0996 12.4681C72.6761 12.4681 72.3055 12.5556 71.979 12.7481C71.6702 12.9493 71.4143 13.2031 71.2202 13.5618C71.0239 13.9245 70.9266 14.3317 70.9378 14.7431V20.7981H68.1496ZM79.1967 20.7981V5.88809H82.0114V11.5756C82.3926 11.0653 82.8886 10.6501 83.4599 10.363C84.0312 10.0759 84.6621 9.92489 85.3025 9.92184C85.9674 9.91219 86.626 10.0511 87.2293 10.3283C87.8327 10.6055 88.3653 11.0139 88.7878 11.5231C89.7325 12.6103 90.2329 14.0086 90.1908 15.4431C90.2061 16.9104 89.6859 18.3338 88.7261 19.4506C88.2824 19.9663 87.7302 20.3793 87.1082 20.6605C86.4862 20.9417 85.8096 21.0842 85.1261 21.0781C84.4829 21.0955 83.8458 20.9505 83.2747 20.6566C82.7036 20.3627 82.2172 19.9297 81.8614 19.3981L81.782 20.7718L79.1967 20.7981ZM84.6496 18.5843C85.1614 18.5843 85.6114 18.4443 86.0261 18.1906C86.4231 17.9106 86.7319 17.5431 86.9878 17.0968C87.2084 16.6506 87.3231 16.1168 87.3231 15.5218C87.3575 15.0051 87.2561 14.4883 87.0287 14.022C86.8014 13.5558 86.4559 13.156 86.0261 12.8618C85.6131 12.6067 85.1362 12.4714 84.6496 12.4714C84.163 12.4714 83.6861 12.6067 83.2731 12.8618C82.8849 13.1418 82.5672 13.5093 82.3202 13.9556C82.0739 14.4433 81.9584 14.9858 81.9849 15.5306C81.9505 16.0474 82.0519 16.5642 82.2793 17.0304C82.5066 17.4967 82.8521 17.8964 83.2819 18.1906C83.6967 18.4443 84.1202 18.5843 84.6496 18.5843Z" fill="#FF385C"/>
</g>
<defs>
<clipPath id="clip0_1_154">
<rect width="90" height="28" fill="white" transform="translate(0.5)"/>
</clipPath>
</defs>
</svg>
