<svg width="85" height="24" viewBox="0 0 85 24" fill="none" xmlns="http://www.w3.org/2000/svg">
<g clip-path="url(#clip0_1_156)">
<path d="M9.59675 3.97278V10.7425H3.42846V3.97278H0.5V20.1328H3.42846V13.5829H9.59675V20.1328H12.5252V3.97278H9.59675Z" fill="#33475B"/>
<path d="M21.8974 14.909C21.8974 15.5567 21.6421 16.1778 21.1878 16.6357C20.7334 17.0937 20.1172 17.351 19.4747 17.351C18.8321 17.351 18.2159 17.0937 17.7616 16.6357C17.3072 16.1778 17.052 15.5567 17.052 14.909V7.98743H14.2742V14.909C14.2742 16.2979 14.8215 17.6299 15.7959 18.612C16.7702 19.5941 18.0917 20.1458 19.4696 20.1458C20.8476 20.1458 22.1691 19.5941 23.1434 18.612C24.1177 17.6299 24.6651 16.2979 24.6651 14.909V7.98743H21.8974V14.909Z" fill="#33475B"/>
<path d="M42.4786 8.70047C42.4786 7.28173 43.4098 6.83195 44.4299 6.83195C45.2521 6.83195 46.3383 7.4625 47.0485 8.22755L48.8678 6.0669C47.9596 4.82894 46.1173 3.97278 44.6093 3.97278C41.5962 3.97278 39.4167 5.75163 39.4167 8.70047C39.4167 14.1715 46.0513 12.4361 46.0513 15.4977C46.0513 16.4421 45.1416 17.2765 44.0999 17.2765C42.4571 17.2765 41.9248 16.4667 41.17 15.6105L39.1512 17.7263C40.4426 19.3244 42.0352 20.1357 43.9435 20.1357C46.806 20.1357 49.1089 18.3352 49.1089 15.5208C49.1089 9.44672 42.4743 11.334 42.4743 8.70047" fill="#33475B"/>
<path d="M83.5228 17.5513C81.8814 17.5513 81.4151 16.8354 81.4151 15.7392V10.8871H83.9662V8.42856H81.4151V5.18469L78.5985 6.45881V16.3423C78.5985 18.8703 80.3289 20.1444 82.7021 20.1444C83.0743 20.1512 83.4463 20.1212 83.8126 20.0547L84.4999 17.505C84.19 17.5267 83.8342 17.5484 83.5228 17.5484" fill="#33475B"/>
<path d="M32.4706 8.0685C31.0947 8.0685 30.1348 8.47055 29.2064 9.38889V4.0697H26.4243V13.9286C26.4243 17.6193 29.0716 20.1473 32.0459 20.1473C35.346 20.1473 38.2487 17.5745 38.2487 14.1094C38.2487 10.6876 35.577 8.06994 32.4706 8.06994V8.0685ZM32.4534 17.3257C31.8291 17.3257 31.2188 17.1391 30.6997 16.7895C30.1806 16.4399 29.776 15.943 29.5371 15.3616C29.2982 14.7803 29.2357 14.1405 29.3575 13.5233C29.4793 12.9062 29.7799 12.3392 30.2214 11.8943C30.6628 11.4493 31.2253 11.1463 31.8376 11.0235C32.4499 10.9007 33.0846 10.9638 33.6614 11.2046C34.2382 11.4454 34.7312 11.8532 35.078 12.3764C35.4249 12.8996 35.61 13.5148 35.61 14.1441C35.61 14.9879 35.2775 15.7972 34.6855 16.3938C34.0935 16.9905 33.2906 17.3257 32.4534 17.3257Z" fill="#33475B"/>
<path d="M62.6792 13.9618C62.6792 10.4909 59.7823 7.92383 56.4765 7.92383C53.5021 7.92383 50.8549 10.4518 50.8549 14.1426V24.0072H53.637V18.6808C54.5639 19.5977 55.5252 20.0012 56.8997 20.0012C60.0061 20.0012 62.6778 17.385 62.6778 13.9618H62.6792ZM60.0449 13.9271C60.0449 14.5564 59.8597 15.1715 59.5129 15.6947C59.166 16.2179 58.673 16.6258 58.0962 16.8666C57.5194 17.1074 56.8848 17.1704 56.2724 17.0476C55.6601 16.9249 55.0977 16.6218 54.6562 16.1769C54.2148 15.7319 53.9141 15.165 53.7923 14.5478C53.6705 13.9306 53.733 13.2909 53.9719 12.7095C54.2109 12.1281 54.6155 11.6312 55.1346 11.2816C55.6537 10.932 56.2639 10.7454 56.8883 10.7454C57.7254 10.7454 58.5283 11.0806 59.1203 11.6773C59.7123 12.274 60.0449 13.0832 60.0449 13.9271Z" fill="#33475B"/>
<path d="M71.667 7.78787V4.97063C72.0364 4.79667 72.3491 4.52054 72.5688 4.17438C72.7886 3.82823 72.9062 3.42628 72.9081 3.01535V2.95027C72.9081 2.37493 72.6814 1.82315 72.2777 1.41632C71.8741 1.00949 71.3267 0.780939 70.7559 0.780939H70.6913C70.1205 0.780939 69.5731 1.00949 69.1695 1.41632C68.7658 1.82315 68.5391 2.37493 68.5391 2.95027V3.01535C68.541 3.42628 68.6586 3.82823 68.8784 4.17438C69.0981 4.52054 69.4108 4.79667 69.7802 4.97063V7.78787C68.7186 7.95157 67.7187 8.3951 66.8819 9.07356L59.2171 3.05584C59.2713 2.8574 59.3003 2.6528 59.3032 2.44698C59.304 1.96352 59.1626 1.49067 58.8968 1.08823C58.631 0.685791 58.2528 0.371847 57.8099 0.186108C57.3671 0.000369021 56.8795 -0.0488204 56.409 0.0447614C55.9384 0.138343 55.5059 0.370492 55.1663 0.711844C54.8266 1.0532 54.595 1.48842 54.5008 1.96245C54.4065 2.43649 54.4539 2.92805 54.6368 3.37496C54.8198 3.82186 55.1302 4.20404 55.5286 4.47314C55.9271 4.74224 56.3958 4.88618 56.8755 4.88675C57.2949 4.88486 57.7065 4.77217 58.0692 4.55991L65.6178 10.4793C64.9395 11.5118 64.5856 12.7264 64.6023 13.9647C64.6189 15.203 65.0053 16.4075 65.7111 17.4211L63.4154 19.7351C63.2297 19.6753 63.0363 19.6436 62.8414 19.6411C62.4477 19.6414 62.0628 19.7593 61.7355 19.98C61.4083 20.2007 61.1532 20.5142 61.0027 20.8809C60.8521 21.2477 60.8128 21.6511 60.8897 22.0404C60.9666 22.4296 61.1562 22.7872 61.4346 23.0678C61.7131 23.3485 62.0678 23.5396 62.454 23.6171C62.8402 23.6946 63.2405 23.655 63.6043 23.5033C63.9682 23.3515 64.2792 23.0944 64.4982 22.7646C64.7171 22.4347 64.8341 22.0468 64.8344 21.6499C64.8319 21.4534 64.8005 21.2585 64.7411 21.0714L67.0124 18.782C67.7531 19.3565 68.6143 19.7525 69.5302 19.9397C70.4461 20.1268 71.3924 20.1003 72.2965 19.8619C73.2006 19.6236 74.0386 19.1799 74.7464 18.5647C75.4541 17.9495 76.0127 17.1793 76.3795 16.3129C76.7463 15.4465 76.9115 14.507 76.8625 13.5664C76.8134 12.6257 76.5514 11.7088 76.0966 10.886C75.6417 10.0631 75.0061 9.35614 74.2383 8.81913C73.4705 8.28212 72.5909 7.92936 71.667 7.78787ZM70.7258 17.0523C70.1045 17.0518 69.4973 16.8656 68.9809 16.5173C68.4646 16.169 68.0623 15.6742 67.8249 15.0955C67.5874 14.5168 67.5255 13.8801 67.647 13.266C67.7684 12.6518 68.0678 12.0878 68.5072 11.6451C68.9466 11.2023 69.5064 10.9009 70.1158 10.7787C70.7251 10.6566 71.3568 10.7193 71.9308 10.9589C72.5048 11.1984 72.9955 11.6042 73.3408 12.1248C73.6861 12.6454 73.8706 13.2574 73.8709 13.8837C73.8709 14.7237 73.5398 15.5293 72.9505 16.1232C72.3612 16.7172 71.562 17.0509 70.7286 17.0509" fill="#FF7A59"/>
</g>
<defs>
<clipPath id="clip0_1_156">
<rect width="84" height="24" fill="white" transform="translate(0.5)"/>
</clipPath>
</defs>
</svg>
