<svg width="38" height="48" viewBox="0 0 38 48" fill="none" xmlns="http://www.w3.org/2000/svg">
<path d="M8.78363 10.2786C8.6123 10.4499 8.51367 10.6879 8.51367 10.9301C8.51367 11.1734 8.6123 11.4103 8.78363 11.5816C8.95496 11.7529 9.19288 11.8516 9.43512 11.8516C9.67844 11.8516 9.91529 11.7529 10.0866 11.5816C10.2579 11.4103 10.3566 11.1734 10.3566 10.9301C10.3566 10.6879 10.2579 10.4499 10.0866 10.2786C9.91529 10.1073 9.67844 10.0087 9.43512 10.0087C9.19288 10.0087 8.95496 10.1073 8.78363 10.2786Z" fill="white"/>
<path d="M34.4692 10.0087H13.1207C12.6117 10.0087 12.1993 10.4211 12.1993 10.9301C12.1993 11.4391 12.6117 11.8516 13.1207 11.8516H34.4692C35.2474 11.8516 35.8805 12.4843 35.8805 13.2625V32.1739H29.7565C29.2475 32.1739 28.835 32.5864 28.835 33.0953C28.835 33.6043 29.2475 34.0168 29.7565 34.0168H35.8805V34.4483C35.8805 35.2265 35.2474 35.8597 34.4692 35.8597H7.55781C7.34076 35.8597 7.13055 35.9363 6.96426 36.0764L2.33973 39.9706V13.2625C2.33973 12.4843 2.97287 11.8516 3.75106 11.8516H5.74946C6.25806 11.8516 6.67091 11.4391 6.67091 10.9301C6.67091 10.4211 6.25806 10.0087 5.74946 10.0087H3.75106C1.95675 10.0087 0.496826 11.4682 0.496826 13.2625V41.9513C0.496826 42.3098 0.704513 42.6356 1.02954 42.7868C1.15372 42.8443 1.28618 42.8728 1.41792 42.8728C1.63136 42.8728 1.84229 42.7986 2.01182 42.6561L7.89399 37.7026H34.4692C36.2635 37.7026 37.7234 36.2427 37.7234 34.4483V13.2625C37.7234 11.4682 36.2635 10.0087 34.4692 10.0087Z" fill="white"/>
<path d="M19.1103 6.73924C19.6193 6.73924 20.0317 6.32675 20.0317 5.81779V1.21342C20.0317 0.704459 19.6193 0.291965 19.1103 0.291965C18.6013 0.291965 18.1888 0.704459 18.1888 1.21342V5.81779C18.1888 6.32675 18.6013 6.73924 19.1103 6.73924Z" fill="white"/>
<path d="M26.0554 7.11302C26.2915 7.11302 26.5269 7.02303 26.7069 6.84306L29.9283 3.62194C30.2883 3.262 30.2883 2.67853 29.9283 2.31859C29.5684 1.95865 28.9849 1.95865 28.625 2.31859L25.4039 5.53971C25.0439 5.89965 25.0439 6.48312 25.4039 6.84306C25.5838 7.02303 25.8196 7.11302 26.0554 7.11302Z" fill="white"/>
<path d="M11.5137 6.83675C11.6936 7.01672 11.9294 7.1067 12.1651 7.1067C12.4009 7.1067 12.6367 7.01672 12.8166 6.83675C13.1766 6.47681 13.1766 5.89334 12.8166 5.5334L9.59516 2.31228C9.23558 1.95234 8.65211 1.95234 8.29217 2.31228C7.93223 2.67222 7.93223 3.25533 8.29217 3.61527L11.5137 6.83675Z" fill="white"/>
<path d="M19.1103 41.0218C18.6013 41.0218 18.1888 41.4343 18.1888 41.9432V46.5476C18.1888 47.0566 18.6013 47.4691 19.1103 47.4691C19.6193 47.4691 20.0317 47.0566 20.0317 46.5476V41.9432C20.0317 41.4343 19.6193 41.0218 19.1103 41.0218Z" fill="white"/>
<path d="M26.7069 40.9193C26.3469 40.5594 25.7638 40.5594 25.4039 40.9193C25.0439 41.2793 25.0439 41.8627 25.4039 42.2227L28.625 45.4438C28.805 45.6237 29.0407 45.7137 29.2765 45.7137C29.5126 45.7137 29.7484 45.6237 29.9283 45.4438C30.2879 45.0838 30.2879 44.5004 29.9283 44.1404L26.7069 40.9193Z" fill="white"/>
<path d="M11.5137 40.9247L8.29217 44.1462C7.93223 44.5061 7.93223 45.0893 8.29217 45.4492C8.47214 45.6292 8.70791 45.7192 8.94367 45.7192C9.17943 45.7192 9.41519 45.6292 9.59516 45.4492L12.8166 42.2281C13.1766 41.8681 13.1766 41.2847 12.8166 40.9247C12.4567 40.5648 11.8736 40.5648 11.5137 40.9247Z" fill="white"/>
<path d="M27.5801 23.2955C27.5801 20.8806 25.6159 18.9164 23.2011 18.9164H21.202C20.6934 18.9164 20.2805 19.3289 20.2805 19.8379V27.9467C20.2805 28.4553 20.6934 28.8681 21.202 28.8681H23.2011C25.6156 28.8681 27.5801 26.9036 27.5801 24.4887V23.2955ZM25.7372 24.4887C25.7372 25.8874 24.5995 27.0252 23.2011 27.0252H22.1234V20.7593H23.2011C24.5995 20.7593 25.7372 21.8968 25.7372 23.2955V24.4887Z" fill="white"/>
<path d="M11.4682 25.336L10.6889 27.6526C10.5266 28.1349 10.7857 28.6575 11.2681 28.8199C11.7511 28.9822 12.273 28.7227 12.4354 28.2404L13.0105 26.531H15.5704L16.1456 28.2404C16.2749 28.6252 16.6337 28.8681 17.0189 28.8681C17.1164 28.8681 17.2154 28.8526 17.3126 28.8199C17.7949 28.6575 18.0544 28.1349 17.8921 27.6526L15.1637 19.5438C15.0377 19.1688 14.6861 18.9164 14.2905 18.9164C13.8949 18.9164 13.5433 19.1688 13.4173 19.5438L11.4689 25.3342C11.4686 25.3349 11.4682 25.3353 11.4682 25.336ZM14.2905 22.7271L14.9503 24.6881H13.6307L14.2905 22.7271Z" fill="white"/>
<path d="M25.4651 32.4444C25.2938 32.6157 25.1952 32.8536 25.1952 33.0959C25.1952 33.3392 25.2938 33.576 25.4651 33.7474C25.6368 33.9187 25.8744 34.0173 26.1166 34.0173C26.3592 34.0173 26.5968 33.9187 26.7681 33.7474C26.9395 33.576 27.0381 33.3381 27.0381 33.0959C27.0381 32.8536 26.9395 32.6157 26.7681 32.4444C26.5968 32.273 26.3592 32.1744 26.1166 32.1744C25.8744 32.1744 25.6365 32.273 25.4651 32.4444Z" fill="white"/>
</svg>
