<svg width="47" height="45" viewBox="0 0 47 45" fill="none" xmlns="http://www.w3.org/2000/svg">
<path d="M12.713 28.8636C13.1466 28.6135 13.295 28.0584 13.0449 27.6249C12.7945 27.1917 12.2398 27.0429 11.8062 27.293C11.3727 27.5434 11.2239 28.0985 11.4743 28.5317C11.7244 28.9652 12.2795 29.114 12.713 28.8636Z" fill="white"/>
<path d="M8.99661 35.1226L13.5632 43.0326C14.5486 44.7413 16.7653 45.374 18.5183 44.3605C20.2529 43.3581 20.849 41.1418 19.8455 39.4058L17.1251 34.6933L19.481 33.3331C19.9146 33.0823 20.0634 32.528 19.8129 32.0944L18.6337 30.052C18.7744 30.0248 19.6989 29.8434 36.0023 26.6452C38.0178 26.5357 39.2253 24.3315 38.2073 22.5692L35.1937 17.3495L37.1195 14.4326C37.3087 14.1456 37.32 13.7769 37.1482 13.4794L35.3346 10.3382C35.1628 10.0406 34.8366 9.86637 34.4948 9.88656L31.0061 10.0959L27.6606 4.30094C27.176 3.46145 26.3078 2.95315 25.3387 2.9411C25.327 2.94075 25.3157 2.94075 25.304 2.94075C24.3674 2.94075 23.5173 3.4069 23.0136 4.19503L11.1679 19.2853L3.46695 23.7314C0.43806 25.4795 -0.611125 29.3652 1.14366 32.4022C2.74684 35.1793 6.12676 36.2717 8.99661 35.1226ZM18.2753 40.3129C18.7761 41.1793 18.4797 42.288 17.6108 42.79C16.739 43.294 15.6289 42.9844 15.1337 42.1262L10.5998 34.2721L13.741 32.4586C18.9883 41.5484 18.191 40.1674 18.2753 40.3129ZM16.2183 33.1224L15.3116 31.5518L16.8821 30.645L17.7889 32.2156L16.2183 33.1224ZM34.0442 11.7302L35.2974 13.9009L34.1799 15.5933L32.0199 11.8517L34.0442 11.7302ZM24.5304 5.18931C24.7737 4.79117 25.1598 4.75008 25.3164 4.75433C25.4712 4.7561 25.8569 4.80428 26.0896 5.20737L36.6367 23.476C36.9803 24.0707 36.5627 24.8185 35.8738 24.8355C35.7501 24.8383 35.6931 24.8606 35.3764 24.9198L24.2197 5.59559C24.4539 5.29451 24.484 5.26546 24.5304 5.18931ZM23.0129 7.13289L33.4952 25.2889L17.6752 28.3918L12.865 20.0603L23.0129 7.13289ZM2.71425 31.4955C2.31611 30.8065 2.10571 30.0244 2.10571 29.2331C2.10571 27.6157 2.97495 26.1096 4.37375 25.302L11.4414 21.2214L15.9754 29.0744L8.9077 33.1553C6.74238 34.405 3.96427 33.6604 2.71425 31.4955Z" fill="white"/>
<path d="M9.90345 29.4395C9.65302 29.0059 9.09832 28.8572 8.66476 29.1076L7.09417 30.0144C6.66132 30.2645 6.10555 30.1153 5.85548 29.6825C5.60505 29.2489 5.05035 29.1002 4.61679 29.3506C4.18323 29.601 4.03446 30.1557 4.28489 30.5893C5.03122 31.8822 6.69603 32.338 8.00096 31.585L9.57155 30.6782C10.0051 30.4278 10.1539 29.8734 9.90345 29.4395Z" fill="white"/>
<path d="M45.3728 4.87977L40.32 7.69153C39.8825 7.93523 39.7249 8.48746 39.9686 8.92491C40.2116 9.36201 40.7634 9.52035 41.202 9.27629L46.2545 6.46453C46.6923 6.22083 46.8496 5.66861 46.6059 5.23115C46.3625 4.79334 45.8103 4.63607 45.3728 4.87977Z" fill="white"/>
<path d="M44.843 14.272L41.3395 13.3334C40.8556 13.2037 40.3583 13.4906 40.2287 13.9745C40.099 14.4583 40.3863 14.9553 40.8702 15.0849L44.3741 16.0236C44.8608 16.1543 45.3556 15.8628 45.4845 15.3825C45.6142 14.8986 45.3269 14.4013 44.843 14.272Z" fill="white"/>
<path d="M36.0382 1.58582L35.0985 5.08972C34.9688 5.57357 35.2557 6.07054 35.7396 6.20054C36.2231 6.32982 36.7204 6.04362 36.8504 5.55941L37.7898 2.05551C37.9194 1.57165 37.6325 1.07433 37.1487 0.944692C36.6652 0.815049 36.1678 1.10196 36.0382 1.58582Z" fill="white"/>
</svg>
