<svg width="39" height="42" viewBox="0 0 39 42" fill="none" xmlns="http://www.w3.org/2000/svg">
<path d="M5.88152 3.45321H4.41614V4.91859H5.88152V3.45321Z" fill="white"/>
<path d="M14.6734 3.45321H7.3465V4.91859H14.6734V3.45321Z" fill="white"/>
<path d="M14.6734 6.38489H2.95032V7.85028H14.6734V6.38489Z" fill="white"/>
<path d="M12.4753 9.31568H2.95032V10.7811H12.4753V9.31568Z" fill="white"/>
<path d="M26.3966 10.7811H24.9312V12.2465H26.3966V10.7811Z" fill="white"/>
<path d="M35.1893 10.7811H27.8624V12.2465H35.1893V10.7811Z" fill="white"/>
<path d="M35.1893 13.7119H23.4662V15.1772H35.1893V13.7119Z" fill="white"/>
<path d="M32.9912 16.6417H23.4662V18.1071H32.9912V16.6417Z" fill="white"/>
<path d="M1.50147 16.612C1.49121 16.8633 1.48535 17.1197 1.48535 17.3762C1.48535 17.6326 1.49121 17.8891 1.50147 18.1404L2.96685 18.0774C2.95586 17.8451 2.95074 17.6106 2.95074 17.3762C2.95074 17.1417 2.95586 16.9073 2.96612 16.675L1.50147 16.612Z" fill="white"/>
<path d="M8.36607 31.3278L9.25849 30.1658C7.57366 28.8816 6.16057 27.2756 5.10117 25.4411C4.04177 23.6065 3.35716 21.5799 3.08702 19.4787L1.6319 19.6678C1.92678 21.9603 2.67388 24.1715 3.82987 26.173C4.98586 28.1746 6.52773 29.9267 8.36607 31.3278Z" fill="white"/>
<path d="M31.7025 5.14294C29.3141 2.66801 26.2497 0.951216 22.8918 0.206793L22.5753 1.63774C25.6517 2.32231 28.4586 3.89677 30.6466 6.16504L31.7025 5.14294Z" fill="white"/>
<path d="M33.2541 21.0387H37.3872C37.5816 21.0387 37.7679 20.9615 37.9053 20.8241C38.0427 20.6867 38.1199 20.5003 38.1199 20.306V8.58293C38.1199 8.38861 38.0427 8.20224 37.9053 8.06484C37.7679 7.92743 37.5816 7.85024 37.3872 7.85024H30.1988C28.8263 6.23995 27.1201 4.94724 25.1985 4.06165C23.2769 3.17606 21.1858 2.71875 19.0699 2.72139C18.5798 2.72139 18.0903 2.75436 17.6046 2.80272V1.25601C17.6046 1.06169 17.5274 0.875324 17.39 0.737918C17.2526 0.600512 17.0662 0.523317 16.8719 0.523317H0.75265C0.558328 0.523317 0.371965 0.600512 0.234559 0.737918C0.0971527 0.875324 0.0199585 1.06169 0.0199585 1.25601V12.9791C0.0199585 13.1734 0.0971527 13.3598 0.234559 13.4972C0.371965 13.6346 0.558328 13.7118 0.75265 13.7118H4.8843C4.00939 17.0825 4.36731 20.6548 5.89354 23.7849C7.41978 26.915 10.0139 29.397 13.2084 30.7835V31.2964H12.4757C12.2814 31.2964 12.095 31.3736 11.9576 31.511C11.8202 31.6484 11.743 31.8347 11.743 32.0291V37.8906C11.743 38.0849 11.8202 38.2713 11.9576 38.4087C12.095 38.5461 12.2814 38.6233 12.4757 38.6233H13.2084V39.356C13.2084 39.939 13.44 40.498 13.8522 40.9103C14.2644 41.3225 14.8235 41.5541 15.4065 41.5541H22.7334C23.3164 41.5541 23.8755 41.3225 24.2877 40.9103C24.6999 40.498 24.9315 39.939 24.9315 39.356V38.6233H25.6642C25.8585 38.6233 26.0449 38.5461 26.1823 38.4087C26.3197 38.2713 26.3969 38.0849 26.3969 37.8906V32.0291C26.3969 31.8347 26.3197 31.6484 26.1823 31.511C26.0449 31.3736 25.8585 31.2964 25.6642 31.2964H24.9315V30.7835C26.9682 29.8986 28.7763 28.5611 30.2185 26.8725C31.6606 25.1839 32.6988 23.1887 33.2541 21.0387ZM36.6545 19.5733H30.0603C29.9018 19.5733 29.7475 19.6247 29.6207 19.7198L27.8622 21.0387V20.306C27.8622 20.1117 27.7851 19.9253 27.6476 19.7879C27.5102 19.6505 27.3239 19.5733 27.1296 19.5733H22.0007V9.31562H36.6545V19.5733ZM20.5353 23.2368V31.2964H17.6046V23.2368C17.6047 23.1231 17.5783 23.011 17.5276 22.9093L15.3413 18.5373L18.8685 19.5455C19.0002 19.5828 19.1397 19.5828 19.2714 19.5455L20.5353 19.1842V20.306C20.5353 20.5003 20.6125 20.6867 20.7499 20.8241C20.8873 20.9615 21.0737 21.0387 21.268 21.0387H21.5479L20.6086 22.9093C20.5592 23.0113 20.5341 23.1234 20.5353 23.2368ZM1.48534 1.9887H16.1392V12.2464H10.2776C10.0833 12.2464 9.89696 12.3236 9.75955 12.461C9.62215 12.5984 9.54495 12.7848 9.54495 12.9791V13.7118L7.78649 12.3929C7.65967 12.2978 7.50541 12.2464 7.34688 12.2464H1.48534V1.9887ZM14.2115 29.6112C11.161 28.4132 8.6688 26.1176 7.22476 23.1756C5.78072 20.2335 5.48923 16.8578 6.40757 13.7118H7.10289L9.83803 15.7633C9.96486 15.8584 10.1191 15.9098 10.2776 15.9098C10.472 15.9098 10.6583 15.8327 10.7957 15.6952C10.9331 15.5578 11.0103 15.3715 11.0103 15.1772V13.7118H16.8719C17.0662 13.7118 17.2526 13.6346 17.39 13.4972C17.5274 13.3598 17.6046 13.1734 17.6046 12.9791V4.2769C18.091 4.22006 18.5802 4.18997 19.0699 4.18678C22.467 4.18297 25.7333 5.49611 28.1824 7.85024H21.268C21.0737 7.85024 20.8873 7.92743 20.7499 8.06484C20.6125 8.20224 20.5353 8.38861 20.5353 8.58293V17.6595L19.0699 18.0786L14.1426 16.6704C14.0338 16.6397 13.9194 16.6344 13.8082 16.655C13.697 16.6756 13.5921 16.7215 13.5015 16.7891L10.5707 18.9872L11.45 20.1595L13.6781 18.4882L16.1392 23.4097V31.2964H14.6738V30.2933C14.674 30.1464 14.6301 30.0027 14.5476 29.8811C14.4652 29.7595 14.348 29.6654 14.2115 29.6112ZM13.2084 32.7618H24.9315V34.2271H13.2084V32.7618ZM23.4661 39.356C23.4661 39.5503 23.3889 39.7367 23.2515 39.8741C23.1141 40.0115 22.9277 40.0887 22.7334 40.0887H15.4065C15.2122 40.0887 15.0258 40.0115 14.8884 39.8741C14.751 39.7367 14.6738 39.5503 14.6738 39.356V38.6233H23.4661V39.356ZM24.9315 37.1579H13.2084V35.6925H24.9315V37.1579ZM22.0007 31.2964V23.4097L23.1862 21.0387H26.3969V22.5041C26.3969 22.6401 26.4348 22.7735 26.5063 22.8893C26.5778 23.005 26.6802 23.0986 26.8019 23.1594C26.9236 23.2203 27.0598 23.246 27.1954 23.2338C27.3309 23.2216 27.4603 23.1719 27.5692 23.0902L30.3043 21.0387H31.7389C31.1784 22.9693 30.1829 24.7458 28.829 26.2318C27.4751 27.7178 25.7987 28.8739 23.9284 29.6112C23.792 29.6654 23.6749 29.7593 23.5925 29.8808C23.51 30.0023 23.466 30.1458 23.4661 30.2926V31.2964H22.0007Z" fill="white"/>
</svg>
