<svg width="19" height="20" viewBox="0 0 19 20" fill="none" xmlns="http://www.w3.org/2000/svg">
<path d="M16.4888 7.6345L16.4772 7.62297C16.4763 7.62233 16.4755 7.62147 16.4751 7.62047L9.26445 0.409668L2.0539 7.62028C2.05307 7.62112 2.05177 7.62279 2.05177 7.62279L2.03987 7.63431C0.937281 8.7431 0.236943 10.1886 0.0501945 11.7411C-0.136554 13.2937 0.201004 14.8641 1.0092 16.2027C1.81741 17.5414 3.04987 18.5715 4.51068 19.1292C5.97148 19.6869 7.5768 19.7403 9.07143 19.2809C9.1972 19.2424 9.33163 19.2424 9.45741 19.2809C10.9519 19.7401 12.5571 19.6867 14.0179 19.1289C15.4786 18.5711 16.7109 17.5411 17.5191 16.2025C18.3272 14.864 18.6648 13.2937 18.4781 11.7412C18.2915 10.1888 17.5912 8.74329 16.4888 7.6345ZM4.61788 12.3894C4.58278 12.4245 4.55494 12.4662 4.53596 12.5121C4.51697 12.5579 4.50719 12.607 4.5072 12.6566C4.52003 13.9293 4.87969 15.1743 5.54748 16.2577C5.56264 16.2823 5.56965 16.3111 5.5675 16.3399C5.56535 16.3686 5.55415 16.396 5.53549 16.4181C5.51684 16.4401 5.4917 16.4557 5.46365 16.4626C5.43561 16.4695 5.40611 16.4673 5.37937 16.4564C4.87735 16.2453 4.42128 15.9383 4.03669 15.5528C3.24852 14.7644 2.80542 13.6955 2.80471 12.5808C2.80399 11.466 3.24572 10.3965 4.03288 9.60726L9.26445 4.37617L14.4958 9.60726C15.2831 10.3964 15.7249 11.4659 15.7242 12.5808C15.7235 13.6955 15.2804 14.7644 14.4921 15.5528C14.1075 15.9383 13.6515 16.2453 13.1496 16.4564C13.1228 16.4673 13.0932 16.4695 13.0652 16.4626C13.0372 16.4557 13.0121 16.44 12.9933 16.4181C12.9747 16.396 12.9635 16.3686 12.9613 16.3398C12.9592 16.311 12.9662 16.2822 12.9813 16.2577C13.6493 15.1743 14.0091 13.9293 14.0221 12.6566C14.0221 12.607 14.0123 12.5579 13.9932 12.512C13.9741 12.4661 13.9462 12.4244 13.911 12.3893L11.4365 9.76472C11.4119 9.74415 11.3809 9.73288 11.3487 9.73288C11.3167 9.73288 11.2856 9.74415 11.261 9.76472C11.2364 9.78521 11.2198 9.81379 11.214 9.84535C11.2082 9.87692 11.2137 9.90941 11.2296 9.93734C12.1906 11.6764 11.3642 14.1744 9.98606 15.5528L9.9788 15.56C9.78859 15.7482 9.5318 15.8537 9.26427 15.8536C8.99669 15.8535 8.73998 15.7478 8.5499 15.5596L8.54321 15.5528C7.16457 14.1744 6.3386 11.6767 7.29979 9.93771C7.31559 9.90978 7.3211 9.87729 7.31535 9.84573C7.3096 9.81416 7.29296 9.78558 7.26834 9.7651C7.24371 9.74452 7.21266 9.73326 7.18059 9.73326C7.14851 9.73326 7.11745 9.74452 7.09283 9.7651L4.61788 12.3894Z" fill="#6D5FED"/>
</svg>
