<svg width="11" height="13" viewBox="0 0 11 13" fill="none" xmlns="http://www.w3.org/2000/svg">
<path d="M12.3134 4.81851L8.56818 4.2742L6.89394 0.880004C6.84821 0.787073 6.77298 0.711843 6.68005 0.666115C6.44699 0.551058 6.16377 0.646939 6.04724 0.880004L4.373 4.2742L0.627735 4.81851C0.524478 4.83326 0.430072 4.88194 0.357793 4.95569C0.27041 5.04551 0.222259 5.16634 0.223918 5.29164C0.225578 5.41693 0.276913 5.53644 0.366643 5.62391L3.07639 8.26581L2.4362 11.9963C2.42119 12.0831 2.43079 12.1724 2.46392 12.254C2.49705 12.3356 2.55238 12.4062 2.62364 12.458C2.6949 12.5097 2.77923 12.5405 2.86708 12.5468C2.95492 12.553 3.04277 12.5346 3.12065 12.4934L6.47059 10.7322L9.82053 12.4934C9.91199 12.5421 10.0182 12.5583 10.12 12.5406C10.3766 12.4964 10.5492 12.253 10.505 11.9963L9.86478 8.26581L12.5745 5.62391C12.6483 5.55163 12.697 5.45723 12.7117 5.35397C12.7515 5.09583 12.5716 4.85686 12.3134 4.81851Z" fill="#FEA250"/>
</svg>
